<svg xmlns="http://www.w3.org/2000/svg" width="225" height="225" viewBox="0 0 225 225" version="1.1">
	<path d="M 75.849 3.520 C 72.043 5.588, 69.316 12.002, 65.343 28.238 C 61.391 44.383, 58.681 50.662, 50.124 63.500 C 41.392 76.600, 37.382 80.999, 34.172 81.004 C 28.339 81.012, 22 87.677, 22 93.801 C 22 94.826, 20.197 97.114, 17.994 98.885 C 8.903 106.190, 7.732 116.018, 14.358 129.392 C 20.344 141.474, 31.446 151, 39.541 151 C 45.403 151, 47.314 153.286, 45.854 158.551 C 44.203 164.503, 45.407 176.025, 48.352 182.458 C 51.879 190.163, 58.982 197.373, 66.871 201.259 C 72.304 203.934, 74.866 204.560, 81.551 204.845 C 86.005 205.035, 91.320 204.729, 93.362 204.166 C 96.638 203.261, 97.864 203.509, 103.764 206.270 C 109.519 208.963, 111.575 209.400, 118.500 209.400 C 125.457 209.400, 127.472 208.968, 133.361 206.212 C 141.425 202.438, 140.237 202.048, 155 213.319 C 167.035 222.507, 172.113 224.585, 178.396 222.893 C 189.264 219.967, 199.945 210.832, 205.513 199.701 C 209.522 191.687, 209.877 187.333, 206.947 182.119 C 204.955 178.576, 203.168 177.094, 194.270 171.608 L 190.041 169.001 193.224 164.485 C 195.820 160.802, 196.484 158.770, 196.821 153.474 C 197.054 149.808, 196.728 145.757, 196.071 144.171 C 195.069 141.753, 195.260 140.678, 197.447 136.431 C 203.486 124.707, 202.603 112.224, 194.987 101.639 C 191.097 96.234, 183.855 91.406, 177.044 89.678 C 172.420 88.506, 171.475 87.867, 170.839 85.489 C 170.248 83.279, 170.609 82.064, 172.544 79.765 C 177.177 74.260, 174.557 65.416, 167.543 62.879 C 164.899 61.923, 164.127 61.172, 164.626 60.040 C 167.605 53.282, 165.368 47.967, 158.166 44.689 C 151.497 41.654, 136.903 41.908, 118.781 45.375 C 102.344 48.520, 96.461 48.738, 95.143 46.250 C 94.633 45.288, 94.047 37.750, 93.840 29.500 C 93.514 16.528, 93.165 13.889, 91.253 9.978 C 87.763 2.839, 81.747 0.317, 75.849 3.520 M 76.010 11.981 C 74.893 14.171, 72.663 21.499, 71.055 28.267 C 66.256 48.468, 62.806 55.739, 49.215 74.296 C 43.317 82.348, 42.903 83.236, 44.317 84.798 C 53.271 94.692, 42.526 110.543, 30.287 105.496 C 28.204 104.637, 25.938 103.190, 25.252 102.279 C 24.120 100.777, 23.713 100.896, 20.879 103.561 C 15.939 108.206, 14.626 112.252, 16.068 118.381 C 18.475 128.616, 24.142 137.022, 32.372 142.564 C 39.095 147.092, 41.189 147.145, 39.930 142.757 C 37.780 135.261, 42.757 124.279, 50.017 120.500 C 51.743 119.602, 52.919 117.753, 53.755 114.625 C 54.582 111.534, 56.484 108.516, 59.645 105.280 C 63.363 101.473, 64.270 99.880, 64.098 97.456 C 63.685 91.632, 67.013 80.290, 70.892 74.298 C 75.692 66.885, 80.748 62.491, 88.953 58.603 C 94.983 55.745, 96.330 55.500, 106 55.500 C 115.761 55.500, 116.980 55.728, 123.328 58.734 L 130.156 61.968 142.133 60.989 C 156.687 59.800, 158.759 59.319, 160.097 56.818 C 161.689 53.843, 158.849 50.308, 153.753 48.920 C 147.865 47.317, 132.388 48.360, 116.500 51.429 C 98.777 54.854, 95.547 54.797, 91.999 50.999 C 88.876 47.656, 88.083 42.979, 88.142 28.249 C 88.185 17.541, 87.322 12.723, 84.893 10.115 C 81.677 6.664, 78.368 7.359, 76.010 11.981 M 108.374 26.764 C 102.030 27.787, 99.654 36.745, 104.455 41.545 C 111.402 48.493, 123.164 38.390, 117.516 30.326 C 115.835 27.927, 111.540 26.253, 108.374 26.764 M 107.667 32.667 C 106.153 34.180, 107.066 37.886, 109.112 38.535 C 111.924 39.428, 114.428 36.924, 113.535 34.112 C 112.886 32.066, 109.180 31.153, 107.667 32.667 M 97.384 61.412 C 86.840 63.970, 78.056 71.385, 73.135 81.880 C 70.833 86.790, 70.523 88.636, 70.686 96.500 C 70.788 101.450, 71.013 106.838, 71.186 108.473 C 71.616 112.546, 68.436 113.277, 66.977 109.441 C 65.963 106.773, 65.921 106.762, 63.872 108.616 C 60.697 111.490, 58.744 115.969, 59.349 118.993 C 59.924 121.869, 58.560 124, 56.144 124 C 53.645 124, 47.852 129.109, 46.394 132.600 C 44.405 137.360, 44.693 141.911, 47.266 146.375 C 49.232 149.785, 52.027 151.848, 59 155.033 C 59.825 155.410, 60.500 156.344, 60.500 157.109 C 60.500 158.123, 59.221 158.457, 55.778 158.341 C 51.133 158.184, 51.046 158.238, 50.400 161.682 C 47.775 175.673, 57.848 192.781, 71.812 198.048 C 79.267 200.860, 91.356 200.452, 97.710 197.173 C 100.026 195.978, 102.627 195, 103.492 195 C 105.838 195, 106.615 198.077, 104.635 199.525 C 101.897 201.527, 109.903 204.264, 118.500 204.264 C 125.141 204.264, 134 201.847, 134 200.035 C 134 198.921, 115.518 190.554, 107.493 188.036 C 102.636 186.512, 95.919 185.551, 85.500 184.888 C 59.525 183.236, 54.500 181.252, 54.500 172.652 C 54.500 169.004, 55.079 167.516, 57.500 164.943 C 59.150 163.189, 61.961 161.129, 63.746 160.365 C 65.531 159.601, 66.881 158.490, 66.746 157.895 C 66.611 157.300, 67.246 156.322, 68.158 155.720 C 69.503 154.833, 70.325 155.233, 72.527 157.849 C 74.018 159.622, 76.512 161.731, 78.069 162.536 C 84.968 166.103, 94.495 162.740, 98 155.500 C 100.474 150.390, 100.487 147.669, 98.063 142.331 C 96.166 138.152, 94.094 136.438, 88.500 134.416 C 84.537 132.984, 83.684 129, 87.340 129 L 89.820 129 86.415 119.473 C 77.815 95.412, 80.037 81, 92.346 81 C 96.585 81, 96.910 80.802, 97.979 77.562 C 100.530 69.834, 106.859 66.190, 112.827 69.014 C 114.297 69.709, 117.617 70.183, 120.205 70.067 C 124.563 69.872, 125.240 70.187, 129.401 74.348 C 131.871 76.819, 135.373 81.463, 137.183 84.670 C 139.624 88.996, 140.552 89.984, 140.781 88.500 C 141.457 84.116, 144.276 77.923, 146.021 76.989 C 149.063 75.361, 152.520 75.861, 154.768 78.253 C 155.943 79.503, 158.059 84.729, 159.526 90.003 C 162.892 102.100, 168.779 120.255, 171.113 125.735 C 172.300 128.524, 173.388 129.789, 174.298 129.439 C 175.058 129.148, 176.257 129.604, 176.962 130.454 C 178.674 132.516, 176.693 135, 173.338 135 C 169.511 135, 163.386 138.638, 161.185 142.219 C 154.882 152.472, 159.690 164.955, 171.129 168.035 C 181.721 170.887, 192 162.767, 192 151.548 C 192 146.565, 190.970 143.840, 187.749 140.301 C 185.063 137.350, 186.092 134.555, 189.546 135.422 C 191.780 135.983, 192.297 135.561, 194.014 131.778 C 198.348 122.230, 195.607 108.631, 187.872 101.307 C 182.148 95.886, 171.777 92.170, 170.773 95.180 C 169.841 97.976, 167.109 94.905, 166.439 90.308 C 164.469 76.805, 153.992 67, 141.533 67 C 135.568 67, 134.883 67.679, 138 70.500 C 140.355 72.632, 140.614 75.550, 138.519 76.354 C 137.592 76.710, 135.441 75.217, 132.769 72.361 C 127.392 66.616, 121.376 63.062, 114.147 61.360 C 107.362 59.763, 104.135 59.773, 97.384 61.412 M 163.043 70.947 C 166.675 74.580, 168.565 75.835, 169.297 75.103 C 170.875 73.525, 168.519 69.148, 165.468 67.988 C 157.979 65.140, 157.644 65.549, 163.043 70.947 M 183.239 70.545 C 180.820 72.239, 179.131 77.236, 179.798 80.725 C 180.556 84.691, 184.839 88, 189.213 88 C 197.732 88, 201.953 78.663, 196.411 72.077 C 194.279 69.543, 193.083 69, 189.634 69 C 187.330 69, 184.453 69.695, 183.239 70.545 M 105.570 75.340 C 101.401 79.508, 101.459 84.025, 105.889 99.851 C 108.158 107.959, 111.394 116.871, 113.382 120.487 C 116.462 126.091, 116.699 127.005, 115.357 128.119 C 114.273 129.018, 113.351 129.087, 112.166 128.357 C 109.360 126.627, 104.262 115.092, 101.032 103.164 C 97.229 89.120, 95.702 86, 92.629 86 C 88.556 86, 87 88.926, 87 96.582 C 87 106.831, 94.581 130.539, 99.161 134.613 C 102.281 137.388, 104.953 143.897, 104.978 148.782 C 105.060 164.666, 88.432 174.258, 74.223 166.525 L 69.150 163.764 65.333 165.632 C 58.556 168.949, 57.758 174.817, 63.774 177.104 C 65.233 177.659, 72.968 178.537, 80.963 179.055 C 99.241 180.241, 105.362 181.359, 116 185.456 C 130.945 191.212, 144.155 198.531, 157.401 208.394 C 171.972 219.243, 173.738 219.752, 182.500 215.625 C 190.440 211.885, 196.482 205.826, 200.620 197.453 C 204.164 190.283, 204.238 189.912, 202.856 186.269 C 201.845 183.603, 199.974 181.574, 196.464 179.338 C 193.734 177.599, 190.230 175.175, 188.677 173.952 C 186.158 171.967, 185.446 171.849, 182.061 172.864 C 173.532 175.419, 166.272 173.546, 159.863 167.137 C 153.374 160.648, 151.577 153.482, 154.223 144.651 C 155.384 140.776, 161.357 133.688, 165.305 131.500 C 167 130.560, 166.896 129.913, 163.584 120.782 C 161.645 115.436, 158.221 104.636, 155.975 96.782 C 153.729 88.927, 151.433 82.050, 150.874 81.500 C 150.193 80.830, 149.185 81.324, 147.817 82.999 C 146.039 85.176, 145.833 86.532, 146.219 93.499 C 146.520 98.930, 147.475 103.489, 149.191 107.690 C 151.708 113.854, 151.487 116, 148.336 116 C 147.641 116, 143.651 109.040, 139.469 100.533 C 131.543 84.412, 124.662 75, 120.800 75 C 119.447 75, 118.969 75.478, 119.345 76.458 C 119.653 77.260, 121.541 83.222, 123.540 89.708 C 125.539 96.194, 128.968 105.253, 131.160 109.840 C 135.171 118.236, 135.489 121.427, 132.253 120.818 C 129.433 120.288, 124.379 109.655, 119 92.935 C 114.404 78.649, 111.547 73, 108.916 73 C 108.362 73, 106.856 74.053, 105.570 75.340 M 186.200 75.200 C 185.540 75.860, 185 77.345, 185 78.500 C 185 79.655, 185.540 81.140, 186.200 81.800 C 186.860 82.460, 188.345 83, 189.500 83 C 190.655 83, 192.140 82.460, 192.800 81.800 C 193.460 81.140, 194 79.655, 194 78.500 C 194 77.345, 193.460 75.860, 192.800 75.200 C 192.140 74.540, 190.655 74, 189.500 74 C 188.345 74, 186.860 74.540, 186.200 75.200 M 30.913 87.282 C 27.768 89.697, 26.725 92.922, 28.053 96.129 C 30.186 101.278, 34.896 102.443, 39.365 98.927 C 43.009 96.061, 43.009 90.939, 39.365 88.073 C 36.414 85.752, 33.287 85.459, 30.913 87.282 M 31.712 186.012 C 24.021 192.062, 30.759 204.072, 40.030 200.840 C 43.818 199.519, 46.359 194.909, 45.487 190.939 C 44.693 187.326, 40.625 184, 37 184 C 35.498 184, 33.119 184.905, 31.712 186.012 M 33.966 191.064 C 33.146 192.596, 33.168 193.498, 34.053 194.564 C 36.858 197.944, 42.081 194.888, 40.034 191.064 C 39.427 189.929, 38.061 189, 37 189 C 35.939 189, 34.573 189.929, 33.966 191.064" stroke="none" fill="black" fill-rule="evenodd"/>
</svg>